<svg xmlns="http://www.w3.org/2000/svg" width="256" height="256" viewBox="0 0 256 256">
  <rect width="256" height="256" rx="32" fill="#071014"/>
  <path d="M128 27C94 50 76 79 80 114c-28-3-48 8-61 33 21 32 48 46 81 40 8 18 17 31 28 42 11-11 20-24 28-42 33 6 60-8 81-40-13-25-33-36-61-33 4-35-14-64-48-87Z" fill="#82d67b" opacity=".16"/>
  <path d="M128 43c-24 23-35 47-31 73l31 24 31-24c4-26-7-50-31-73Z" fill="#82d67b"/>
  <path d="M37 151c22-18 44-22 66-11l11 35c-29 8-54 0-77-24Zm182 0c-22-18-44-22-66-11l-11 35c29 8 54 0 77-24Z" fill="#57c4c3"/>
  <circle cx="128" cy="154" r="27" fill="#101f24" stroke="#e2ba60" stroke-width="8"/>
  <circle cx="128" cy="154" r="8" fill="#e2ba60"/>
</svg>
